<?xml version="1.0" encoding="utf-8"?>
<!-- Generator: Adobe Illustrator 23.0.1, SVG Export Plug-In . SVG Version: 6.00 Build 0)  -->
<svg version="1.1" id="Laag_1" xmlns="http://www.w3.org/2000/svg" xmlns:xlink="http://www.w3.org/1999/xlink" x="0px" y="0px"
	 viewBox="0 0 264 244" style="enable-background:new 0 0 264 244;" xml:space="preserve">
<style type="text/css">
	.st0{fill:#FFDF5D;}
	.st1{fill:#FFFFFF;}
</style>
<polygon class="st0" points="113,22 68,17 20,29 0.8,70.75 10.29,107.73 57,155 124,235 188,176 250,108 250,57 230,29 188.82,8.53 
	125,37 "/>
<g id="NKzqni.tif_1_">
	<g>
		<path class="st0" d="M132.01,20c22.5-17,47.25-22.76,74.47-14.86c57.18,16.6,76.89,89.22,35.39,131.89
			c-33.6,34.55-68.06,68.27-102.19,102.3c-6.63,6.61-8.88,6.49-15.93-0.53c-33.33-33.25-66.74-66.42-99.89-99.85
			C-6.42,108.4-8,61.8,19.79,29.23c26.4-30.94,73.03-36.45,107.3-12.69C128.67,17.63,130.23,18.75,132.01,20z M131.31,220.28
			c33.02-32.63,66.42-63.82,97.62-97.07c22.11-23.56,19.06-60.82-3.69-83.47c-23.02-22.93-59.54-24.38-84.41-3.36
			c-8.41,7.11-9.26,7.12-17.42,0.19c-25.12-21.33-61.99-19.8-84.99,3.53c-23.21,23.53-24.62,61.53-1.6,85.46
			C67.73,157.69,99.75,188.75,131.31,220.28z"/>
		<path class="st1" d="M31.3,90.94c-0.1-26.35,15.62-48.67,37.62-55.77c4.93-1.59,10.44-3.13,12.69,3.48
			c2.12,6.24-2.15,8.68-7.53,10.63C53.92,56.59,43.05,75.74,47.3,96.6c1.15,5.63,0.45,9.7-5.47,10.91c-5.52,1.13-8.2-2.33-9.05-7.46
			C32.15,96.21,31.53,92.36,31.3,90.94z"/>
	</g>
</g>
</svg>
