<?xml version="1.0" encoding="utf-8"?>
<!-- Generator: Adobe Illustrator 23.0.1, SVG Export Plug-In . SVG Version: 6.00 Build 0)  -->
<svg version="1.1" id="Laag_1" xmlns="http://www.w3.org/2000/svg" xmlns:xlink="http://www.w3.org/1999/xlink" x="0px" y="0px"
	 viewBox="0 0 184 135" style="enable-background:new 0 0 184 135;" xml:space="preserve">
<style type="text/css">
	.st0{fill:#FFDF5D;}
</style>
<g>
	<path class="st0" d="M104.23,86.98c-6.88,0.01-14.38,0.02-21.51,0.04c-0.56,6.44-0.38,12.35-1.68,17.92
		c-4.56,19.57-22.75,31.7-43.31,29.42C19.49,132.34,4.27,115.72,4,96.72C3.66,73.57,3.7,50.4,3.9,27.24
		C4.02,12.66,15.48,1.04,30.06,0.2c4.32-0.25,8.66-0.14,12.99-0.13c3.36,0.01,5.48,1.77,5.59,5.1c0.11,3.49-1.95,5.71-5.42,5.97
		c-3.81,0.28-7.66,0.05-11.49,0.16c-8.57,0.26-15.92,6.06-16.32,14.55c-0.64,13.56-0.13,27.18-0.11,41.45
		c1.8-1.3,3.1-2.22,4.37-3.17c18.1-13.48,43.2-9.52,55.94,9.1c1.92,2.81,3.72,3.29,6.88,3.15c7.94-0.37,15.91,0,23.87-0.23
		c1.8-0.05,4.27-0.85,5.24-2.17c14.88-20.31,38.74-23.91,58.6-8.66c0.61,0.47,1.28,0.87,2.47,1.67c-0.02-14.2,0.45-27.8-0.25-41.34
		c-0.46-8.8-7.76-14.39-16.76-14.57c-3.5-0.07-7,0.07-10.5-0.05c-3.45-0.11-5.93-1.91-6-5.41c-0.07-3.75,2.37-5.65,6.13-5.74
		c0.5-0.01,1,0.01,1.5-0.03c25.26-2.17,37.97,10.85,36.68,35.6c-1.04,19.94,0,39.98-0.16,59.98c-0.16,19.58-14.55,36.19-33.11,38.7
		c-19.72,2.66-37.97-8.5-43.4-27.27C105.05,100.76,105.1,94.15,104.23,86.98z M144.49,123.29c15.71,0.04,28.37-12.47,28.39-28.07
		c0.02-15.38-12.45-27.99-27.82-28.12c-15.71-0.13-28.39,12.18-28.64,27.82C116.18,110.44,128.86,123.25,144.49,123.29z
		 M43.52,123.46c15.67-0.04,28.28-12.74,28.12-28.31C71.47,79.66,59.06,67.31,43.6,67.27c-15.64-0.04-28.38,12.54-28.41,28.07
		C15.16,110.9,27.85,123.5,43.52,123.46z"/>
</g>
</svg>
