<?xml version="1.0" encoding="utf-8"?>
<!-- Generator: Adobe Illustrator 23.0.1, SVG Export Plug-In . SVG Version: 6.00 Build 0)  -->
<svg version="1.1" id="Layer_1" xmlns="http://www.w3.org/2000/svg" xmlns:xlink="http://www.w3.org/1999/xlink" x="0px" y="0px"
	 viewBox="0 0 349 342" style="enable-background:new 0 0 349 342;" xml:space="preserve">
<style type="text/css">
	.st0{fill:#9E1981;}
	.st1{fill:#FFFFFF;}
</style>
<g>
	<path class="st0" d="M302.85,171.94c0,76.92-62.37,139.3-139.31,139.3c-76.94,0-139.31-62.37-139.31-139.3
		c0-76.93,62.37-139.3,139.31-139.3C240.48,32.64,302.85,95.01,302.85,171.94"/>
	<path class="st1" d="M231.91,234.91v-2.67c-1.97-0.5-4.57-1.04-7.92-1.04c-4.94,0-7.7,2.18-7.7,5.45v0.09
		c0,3.37,3.2,5.34,6.78,5.34C227.84,242.07,231.91,239.17,231.91,234.91 M213.92,236.87v-0.12c0-4.84,4.17-7.59,10.21-7.59
		c3.25,0,5.5,0.43,7.74,1.01v-1.01c0-4.69-2.89-7.14-7.7-7.14c-2.84,0-5.18,0.77-7.32,1.88l-0.83-1.96c2.56-1.19,5.09-2.02,8.3-2.02
		c3.16,0,5.68,0.86,7.37,2.57c1.56,1.55,2.39,3.7,2.39,6.6v14.55h-2.2v-3.88c-1.62,2.23-4.49,4.43-8.94,4.43
		C218.58,244.19,213.92,241.73,213.92,236.87 M241.19,243.64h2.25v-23.35h-2.25V243.64z M240.92,214.19h2.8v-3.08h-2.8V214.19z
		 M250.91,220.29h2.24v6.61c1.84-4.15,5.72-7.16,10.35-6.98v2.48h-0.24c-5.4,0-10.11,4.07-10.11,11.67v9.57h-2.24V220.29z"/>
	<g>
		<path class="st1" d="M88.93,176.36c0,0-1.57-0.14-1.96-0.22c-0.39-0.08-1.29-0.37-1.31-0.77c0,0,0-0.01,0-0.01c0,0,0,0,0,0
			c0,0,0,0,0,0c0,0,0-0.01,0-0.01c0.02-0.4,0.92-0.69,1.31-0.77c0.39-0.08,1.96-0.22,1.96-0.22l33.27-1.48l7.41-24.38
			c0.01-0.04,0.02-0.09,0.04-0.14c0.08-0.3,0.13-0.61,0.13-0.94c0-1.89-1.52-3.42-3.41-3.42h-16.59c-1.54,0-2.83,1.01-3.26,2.41
			c-0.03,0.1-0.06,0.22-0.07,0.32l-5.77,22.01l-6.61-22.13l-0.23-0.75c-0.52-1.21-1.72-2.07-3.12-2.07H75.59
			c-1.52,0-2.81,1-3.24,2.4l-6.65,22.31l-5.53-21.77c-0.03-0.1-0.07-0.22-0.09-0.32c-0.43-1.39-1.73-2.41-3.25-2.41H39.9
			c-1.89,0-3.41,1.53-3.41,3.42c0,0.36,0.04,0.7,0.16,1l16.28,54.33l0.06,0.23c0.46,1.33,1.74,2.29,3.24,2.29h16.02
			c1.53,0,2.81-1.01,3.25-2.39l7.6-23.67l7.32,23.49c0.01,0.05,0.02,0.09,0.03,0.12l0.08,0.21c0.01,0.04,0.03,0.09,0.04,0.15
			c0.52,1.22,1.74,2.09,3.15,2.09h16.14c1.44,0,2.7-0.92,3.18-2.19l0.16-0.48c0-0.01,0-0.04,0.01-0.05l7.58-24.96L88.93,176.36z"/>
		<path class="st1" d="M153.29,171.49c0.92-3.79,3.62-6.75,7.05-7.71c0.15-1.66,1.04-11.66,1.3-12.3c0.28-0.7,0.93-0.72,1.02-0.72
			c0.09,0,0.09,0,0.09,0s0,0,0.09,0c0.09,0,0.74,0.01,1.02,0.72c0.26,0.65,1.15,10.64,1.3,12.3c3.43,0.97,6.13,3.93,7.05,7.71
			l24.72,1.1c-0.01-0.19-0.01-0.31-0.01-0.31c-1-16.3-14.83-29.73-34.02-29.73c-19.32,0-33.28,13.66-34.23,30.03L153.29,171.49z"/>
		<path class="st1" d="M171.66,178.84c-1.55,3.75-4.95,6.36-8.91,6.36c-3.96,0-7.36-2.61-8.91-6.36l-25.05-0.96
			c1.66,15.7,15.25,28.37,33.9,28.37c18.68,0,32.3-12.77,34.09-28.38L171.66,178.84z"/>
		<path class="st1" d="M285.81,143.99h-16.6c-1.53,0-2.83,1.01-3.26,2.39c-0.03,0.12-0.06,0.23-0.07,0.33l-5.76,22.01l-6.62-22.12
			l-0.24-0.76c-0.51-1.23-1.7-2.07-3.12-2.07h-15.1c-1.53,0-2.83,1-3.27,2.4l-6.62,22.34l-5.54-21.8c-0.02-0.1-0.06-0.22-0.09-0.33
			c-0.43-1.38-1.73-2.39-3.26-2.39h-16.93c-1.89,0-3.42,1.53-3.42,3.42c0,0.35,0.06,0.7,0.16,1.02l7.33,24.44l33.16,1.47
			c0,0,1.57,0.14,1.96,0.22c0.39,0.08,1.29,0.37,1.31,0.77c0,0,0,0.01,0,0.01c0,0,0,0,0,0c0,0,0,0,0,0c0,0,0,0,0,0.01
			c-0.02,0.4-0.92,0.69-1.31,0.77c-0.39,0.08-1.96,0.22-1.96,0.22l-31.74,1.21l7.53,25.16l0.06,0.22c0.47,1.35,1.73,2.31,3.22,2.31
			h16.02c1.53,0,2.83-1.01,3.26-2.39l7.59-23.67l7.32,23.49c0.02,0.05,0.04,0.07,0.06,0.12l0.07,0.21c0.01,0.05,0.02,0.09,0.04,0.15
			c0.54,1.22,1.73,2.09,3.16,2.09h16.13c1.45,0,2.69-0.92,3.18-2.19l0.15-0.48c0-0.01,0-0.04,0.01-0.05l16.41-54.04
			c0.01-0.04,0.02-0.09,0.03-0.14c0.09-0.3,0.14-0.61,0.14-0.94C289.22,145.52,287.69,143.99,285.81,143.99z"/>
	</g>
</g>
</svg>
